<svg width="689" height="602" viewBox="0 0 689 602" fill="none" xmlns="http://www.w3.org/2000/svg">
<mask id="path-1-outside-1_597_17" maskUnits="userSpaceOnUse" x="0" y="-1" width="689" height="603" fill="black">
<rect fill="white" y="-1" width="689" height="603"/>
<path d="M558.165 33.1523C557.008 33.7945 555.199 34.6871 553.107 34.7972C542.223 35.37 531.734 36.2537 522.147 39.5885C486.09 52.1302 439.353 55.67 402.756 57.2966C362.463 59.0873 321.262 58.4483 281.047 55.0339C277.241 54.7107 273.463 54.4156 269.708 54.1221C244.02 52.115 219.411 50.1923 194.622 40.0063C195.448 70.7033 201.017 100.458 206.796 131.27L207.081 132.792C216.045 180.599 219.953 228.618 223.464 276.771C228.036 339.474 229.945 402.295 229.945 465.128C229.945 498.98 204.785 530.437 179.511 548.76C160.607 562.465 139.416 571.728 117.091 577.532C103.963 580.946 94.2634 582.787 85.0591 580.653C75.7834 578.504 67.7981 572.519 57.4165 562.684C21.9495 529.084 20 492.3 20 448.255C20 419.944 23.1296 383.875 51.7542 364.792C68.3342 353.738 87.9597 349.038 107.553 346.544C117.37 345.294 127.302 344.586 136.93 343.947L139.884 343.752H139.886C148.51 343.184 156.842 342.636 164.782 341.765C174.243 340.729 188.629 341.606 200.628 343.151C206.671 343.929 212.301 344.901 216.58 345.949L216.958 346.043C217.128 346.085 217.296 346.128 217.464 346.171C216.47 323.263 215.158 300.37 213.49 277.498C209.979 229.336 206.101 181.827 197.252 134.635L196.926 132.896C190.704 99.7201 184.517 66.7306 184.517 32.2702C184.517 30.5529 185.398 28.9557 186.851 28.0402C188.304 27.1246 190.125 27.0186 191.674 27.7596C217.147 39.9423 242.108 41.91 270.454 44.1445C274.205 44.4401 278.015 44.7404 281.893 45.0696C321.648 48.4451 362.418 49.0795 402.312 47.3064C438.96 45.6777 484.344 42.1495 518.862 30.1436C529.879 26.3112 541.595 25.3915 552.458 24.8176L552.471 24.8125C552.549 24.7841 552.81 24.6878 553.311 24.4096C553.862 24.1032 554.342 23.7963 554.941 23.4126L554.955 23.4039C555.324 23.1675 555.74 22.902 556.245 22.5898C557.356 21.903 558.876 21.0156 560.56 20.4889C562.321 19.9378 564.675 19.6542 567.108 20.7356C569.317 21.7173 570.754 23.5832 571.666 25.0667C572.647 26.6646 573.463 28.5612 574.157 30.5053C575.55 34.4068 576.707 39.2303 577.686 43.95C578.468 47.7198 579.167 51.5778 579.787 55.0031C579.947 55.8868 580.102 56.7415 580.251 57.5586C581.023 61.7699 581.599 64.6045 582.03 65.8379C592.926 97.023 604.068 128.12 615.468 159.126C636.785 217.11 652.779 274.606 661.295 333.703C661.304 333.755 661.311 333.807 661.318 333.859C666.888 372.573 669.249 411.975 667.797 452.651C666.789 480.862 647.364 505.351 629.636 523.079C619.235 533.481 605.741 537.855 592.217 539.713C581.27 541.216 569.794 541.12 559.49 541.033H559.485C557.158 541.014 554.891 540.994 552.703 540.994H552.088C531.752 540.995 513.757 540.996 495.022 528.952C475.366 516.316 457.395 492.231 449.445 470.653C440.765 447.092 440.302 425.568 453.447 402.474C453.977 401.544 454.521 400.584 455.079 399.598L455.12 399.526C459.363 392.036 464.436 383.081 470.233 374.738C476.778 365.32 484.586 356.166 493.725 350.617C517.36 336.267 545.676 331.093 574.022 329.408C592.967 328.283 612.406 328.711 630.66 329.113L630.718 329.115L630.833 329.117C637.6 329.266 644.204 329.411 650.558 329.471C641.971 273.178 626.527 218.188 606.082 162.576C594.664 131.519 583.503 100.371 572.59 69.1364C571.84 66.992 571.125 63.2326 570.415 59.3609C570.258 58.5046 570.099 57.6225 569.935 56.7209C569.317 53.3069 568.647 49.6131 567.894 45.981C566.937 41.3672 565.892 37.0955 564.739 33.8676C564.161 32.2471 563.618 31.0704 563.146 30.3023L563.09 30.2122C562.95 30.276 562.793 30.3539 562.617 30.4479C562.31 30.6114 561.943 30.8237 561.502 31.0962C561.274 31.2375 560.994 31.4156 560.685 31.6127L560.669 31.6226C559.908 32.1077 558.969 32.706 558.165 33.1523Z"/>
</mask>
<path d="M558.165 33.1523C557.008 33.7945 555.199 34.6871 553.107 34.7972C542.223 35.37 531.734 36.2537 522.147 39.5885C486.09 52.1302 439.353 55.67 402.756 57.2966C362.463 59.0873 321.262 58.4483 281.047 55.0339C277.241 54.7107 273.463 54.4156 269.708 54.1221C244.02 52.115 219.411 50.1923 194.622 40.0063C195.448 70.7033 201.017 100.458 206.796 131.27L207.081 132.792C216.045 180.599 219.953 228.618 223.464 276.771C228.036 339.474 229.945 402.295 229.945 465.128C229.945 498.98 204.785 530.437 179.511 548.76C160.607 562.465 139.416 571.728 117.091 577.532C103.963 580.946 94.2634 582.787 85.0591 580.653C75.7834 578.504 67.7981 572.519 57.4165 562.684C21.9495 529.084 20 492.3 20 448.255C20 419.944 23.1296 383.875 51.7542 364.792C68.3342 353.738 87.9597 349.038 107.553 346.544C117.37 345.294 127.302 344.586 136.93 343.947L139.884 343.752H139.886C148.51 343.184 156.842 342.636 164.782 341.765C174.243 340.729 188.629 341.606 200.628 343.151C206.671 343.929 212.301 344.901 216.58 345.949L216.958 346.043C217.128 346.085 217.296 346.128 217.464 346.171C216.47 323.263 215.158 300.37 213.49 277.498C209.979 229.336 206.101 181.827 197.252 134.635L196.926 132.896C190.704 99.7201 184.517 66.7306 184.517 32.2702C184.517 30.5529 185.398 28.9557 186.851 28.0402C188.304 27.1246 190.125 27.0186 191.674 27.7596C217.147 39.9423 242.108 41.91 270.454 44.1445C274.205 44.4401 278.015 44.7404 281.893 45.0696C321.648 48.4451 362.418 49.0795 402.312 47.3064C438.96 45.6777 484.344 42.1495 518.862 30.1436C529.879 26.3112 541.595 25.3915 552.458 24.8176L552.471 24.8125C552.549 24.7841 552.81 24.6878 553.311 24.4096C553.862 24.1032 554.342 23.7963 554.941 23.4126L554.955 23.4039C555.324 23.1675 555.74 22.902 556.245 22.5898C557.356 21.903 558.876 21.0156 560.56 20.4889C562.321 19.9378 564.675 19.6542 567.108 20.7356C569.317 21.7173 570.754 23.5832 571.666 25.0667C572.647 26.6646 573.463 28.5612 574.157 30.5053C575.55 34.4068 576.707 39.2303 577.686 43.95C578.468 47.7198 579.167 51.5778 579.787 55.0031C579.947 55.8868 580.102 56.7415 580.251 57.5586C581.023 61.7699 581.599 64.6045 582.03 65.8379C592.926 97.023 604.068 128.12 615.468 159.126C636.785 217.11 652.779 274.606 661.295 333.703C661.304 333.755 661.311 333.807 661.318 333.859C666.888 372.573 669.249 411.975 667.797 452.651C666.789 480.862 647.364 505.351 629.636 523.079C619.235 533.481 605.741 537.855 592.217 539.713C581.27 541.216 569.794 541.12 559.49 541.033H559.485C557.158 541.014 554.891 540.994 552.703 540.994H552.088C531.752 540.995 513.757 540.996 495.022 528.952C475.366 516.316 457.395 492.231 449.445 470.653C440.765 447.092 440.302 425.568 453.447 402.474C453.977 401.544 454.521 400.584 455.079 399.598L455.12 399.526C459.363 392.036 464.436 383.081 470.233 374.738C476.778 365.32 484.586 356.166 493.725 350.617C517.36 336.267 545.676 331.093 574.022 329.408C592.967 328.283 612.406 328.711 630.66 329.113L630.718 329.115L630.833 329.117C637.6 329.266 644.204 329.411 650.558 329.471C641.971 273.178 626.527 218.188 606.082 162.576C594.664 131.519 583.503 100.371 572.59 69.1364C571.84 66.992 571.125 63.2326 570.415 59.3609C570.258 58.5046 570.099 57.6225 569.935 56.7209C569.317 53.3069 568.647 49.6131 567.894 45.981C566.937 41.3672 565.892 37.0955 564.739 33.8676C564.161 32.2471 563.618 31.0704 563.146 30.3023L563.09 30.2122C562.95 30.276 562.793 30.3539 562.617 30.4479C562.31 30.6114 561.943 30.8237 561.502 31.0962C561.274 31.2375 560.994 31.4156 560.685 31.6127L560.669 31.6226C559.908 32.1077 558.969 32.706 558.165 33.1523Z" fill="black"/>
<path d="M553.107 34.7972L552.056 14.8248L552.056 14.8248L553.107 34.7972ZM558.165 33.1523L567.873 50.6381L567.874 50.6374L558.165 33.1523ZM522.147 39.5885L528.717 58.4785L528.717 58.4785L522.147 39.5885ZM402.756 57.2966L403.644 77.2768L403.644 77.2768L402.756 57.2966ZM281.047 55.0339L279.355 74.9621L279.355 74.9622L281.047 55.0339ZM269.708 54.1221L271.266 34.1829L271.266 34.1829L269.708 54.1221ZM194.622 40.0063L202.224 21.5072L173.803 9.82864L174.63 40.5444L194.622 40.0063ZM206.796 131.27L226.453 127.587L226.453 127.584L206.796 131.27ZM207.081 132.792L187.423 136.476L187.423 136.478L207.081 132.792ZM223.464 276.771L203.517 278.225L203.517 278.225L223.464 276.771ZM179.511 548.76L191.25 564.953L191.25 564.952L179.511 548.76ZM117.091 577.532L122.124 596.889L122.124 596.889L117.091 577.532ZM85.0591 580.653L80.5434 600.137L80.5435 600.137L85.0591 580.653ZM57.4165 562.684L71.1714 548.165L71.1714 548.165L57.4165 562.684ZM51.7542 364.792L62.8482 381.433L62.8482 381.433L51.7542 364.792ZM107.553 346.544L105.028 326.704L105.027 326.704L107.553 346.544ZM136.93 343.947L135.612 323.991L135.606 323.991L136.93 343.947ZM139.884 343.752V323.752H139.224L138.566 323.796L139.884 343.752ZM139.886 343.752V363.752H140.544L141.2 363.709L139.886 343.752ZM164.782 341.765L166.961 361.646L166.961 361.646L164.782 341.765ZM200.628 343.151L198.073 362.987L198.074 362.987L200.628 343.151ZM216.58 345.949L221.387 326.535L221.362 326.529L221.337 326.523L216.58 345.949ZM216.958 346.043L221.835 326.646L221.8 326.637L221.764 326.629L216.958 346.043ZM217.464 346.171L212.46 365.535L238.615 372.294L237.445 345.305L217.464 346.171ZM213.49 277.498L233.438 276.044L233.438 276.044L213.49 277.498ZM197.252 134.635L216.91 130.949L216.909 130.948L197.252 134.635ZM196.926 132.896L177.269 136.583L177.269 136.584L196.926 132.896ZM186.851 28.0402L197.514 44.9609L197.515 44.9603L186.851 28.0402ZM191.674 27.7596L183.044 45.8018L183.045 45.8023L191.674 27.7596ZM270.454 44.1445L272.026 24.2063L272.026 24.2063L270.454 44.1445ZM281.893 45.0696L283.585 25.1413L283.585 25.1413L281.893 45.0696ZM402.312 47.3064L401.424 27.3262L401.424 27.3262L402.312 47.3064ZM518.862 30.1436L525.432 49.0336L525.432 49.0335L518.862 30.1436ZM552.458 24.8176L553.513 44.7897L556.573 44.628L559.443 43.5581L552.458 24.8176ZM552.471 24.8125L545.572 6.04013L545.529 6.05597L545.486 6.072L552.471 24.8125ZM553.311 24.4096L543.601 6.92462L543.601 6.92464L553.311 24.4096ZM554.941 23.4126L544.262 6.50287L544.212 6.53437L544.162 6.56616L554.941 23.4126ZM554.955 23.4039L565.635 40.3136L565.687 40.2808L565.739 40.2477L554.955 23.4039ZM556.245 22.5898L545.731 5.57627L545.728 5.57781L556.245 22.5898ZM560.56 20.4889L566.532 39.5765L566.533 39.5762L560.56 20.4889ZM567.108 20.7356L558.985 39.0118L558.985 39.0121L567.108 20.7356ZM571.666 25.0667L554.626 35.5377L554.626 35.5379L571.666 25.0667ZM574.157 30.5053L592.993 23.781L592.993 23.7805L574.157 30.5053ZM577.686 43.95L558.102 48.0121L558.102 48.0122L577.686 43.95ZM579.787 55.0031L599.467 51.4417L599.467 51.4388L579.787 55.0031ZM580.251 57.5586L599.924 53.9547L599.923 53.9499L580.251 57.5586ZM582.03 65.8379L563.149 72.4343L563.149 72.4348L582.03 65.8379ZM615.468 159.126L634.239 152.224L634.239 152.224L615.468 159.126ZM661.295 333.703L641.5 336.556L641.523 336.714L641.548 336.871L661.295 333.703ZM661.318 333.859L641.475 336.363L641.497 336.535L641.522 336.708L661.318 333.859ZM667.797 452.651L687.784 453.365L687.784 453.365L667.797 452.651ZM629.636 523.079L615.494 508.937L615.494 508.937L629.636 523.079ZM592.217 539.713L589.495 519.899L589.495 519.899L592.217 539.713ZM559.49 541.033L559.659 521.034L559.574 521.033H559.49V541.033ZM559.485 541.033L559.317 561.032L559.401 561.033H559.485V541.033ZM552.088 540.994L552.088 520.994L552.088 520.994L552.088 540.994ZM495.022 528.952L505.837 512.128L505.837 512.128L495.022 528.952ZM449.445 470.653L468.212 463.739L468.212 463.738L449.445 470.653ZM453.447 402.474L470.829 412.368L470.829 412.367L453.447 402.474ZM455.079 399.598L437.71 389.682L437.693 389.713L437.675 389.744L455.079 399.598ZM455.12 399.526L472.488 409.443L472.505 409.413L472.522 409.384L455.12 399.526ZM470.233 374.738L486.657 386.151L486.657 386.151L470.233 374.738ZM493.725 350.617L504.104 367.713L504.104 367.713L493.725 350.617ZM574.022 329.408L575.209 349.373L575.209 349.373L574.022 329.408ZM630.66 329.113L631.16 309.12L631.13 309.119L631.1 309.118L630.66 329.113ZM630.718 329.115L630.218 349.109L630.244 349.109L630.27 349.11L630.718 329.115ZM630.833 329.117L630.384 349.112L630.393 349.113L630.833 329.117ZM650.558 329.471L650.369 349.47L673.874 349.692L670.329 326.455L650.558 329.471ZM606.082 162.576L624.853 155.675L624.853 155.675L606.082 162.576ZM572.59 69.1364L591.471 62.5397L591.47 62.5375L572.59 69.1364ZM570.415 59.3609L550.742 62.9618L550.743 62.9658L570.415 59.3609ZM569.935 56.7209L550.255 60.2857L550.256 60.2911L569.935 56.7209ZM567.894 45.981L548.311 50.0431L548.311 50.0432L567.894 45.981ZM564.739 33.8676L583.575 27.1434L583.575 27.1422L564.739 33.8676ZM563.146 30.3023L580.186 19.8321L580.153 19.7775L580.119 19.723L563.146 30.3023ZM563.09 30.2122L580.062 19.6329L570.769 4.72319L554.786 12.0174L563.09 30.2122ZM562.617 30.4479L572.019 48.1002L572.027 48.0957L562.617 30.4479ZM561.502 31.0962L550.989 14.082L550.979 14.0884L561.502 31.0962ZM560.685 31.6127L549.936 14.7469L549.903 14.768L549.87 14.7891L560.685 31.6127ZM560.669 31.6226L571.415 48.4905L571.45 48.4684L571.485 48.4462L560.669 31.6226ZM554.158 54.7695C560.989 54.41 566.118 51.6127 567.873 50.6381L548.457 15.6664C548.291 15.7588 548.552 15.5997 549.055 15.414C549.557 15.2283 550.599 14.9015 552.056 14.8248L554.158 54.7695ZM528.717 58.4785C535.358 56.1686 543.294 55.3414 554.158 54.7695L552.056 14.8248C541.152 15.3987 528.111 16.3388 515.576 20.6986L528.717 58.4785ZM403.644 77.2768C440.142 75.6546 489.581 72.0911 528.717 58.4785L515.576 20.6986C482.598 32.1692 438.564 35.6853 401.868 37.3163L403.644 77.2768ZM279.355 74.9622C320.489 78.4546 362.555 79.103 403.644 77.2768L401.868 37.3163C362.372 39.0716 322.035 38.442 282.739 35.1056L279.355 74.9622ZM268.15 74.0613C271.916 74.3557 275.627 74.6457 279.355 74.9621L282.739 35.1056C278.855 34.7758 275.01 34.4755 271.266 34.1829L268.15 74.0613ZM187.021 58.5054C215.154 70.0655 242.86 72.0853 268.15 74.0613L271.266 34.1829C245.181 32.1448 223.669 30.3191 202.224 21.5072L187.021 58.5054ZM226.453 127.584C220.626 96.5173 215.391 68.3163 214.615 39.4682L174.63 40.5444C175.505 73.0903 181.407 104.399 187.138 134.957L226.453 127.584ZM226.739 129.108L226.453 127.587L187.138 134.954L187.423 136.476L226.739 129.108ZM243.411 275.316C239.901 227.182 235.933 178.144 226.738 129.106L187.423 136.478C196.157 183.055 200.005 230.054 203.517 278.225L243.411 275.316ZM249.945 465.128C249.945 401.893 248.024 338.58 243.411 275.316L203.517 278.225C208.048 340.368 209.945 402.697 209.945 465.128H249.945ZM191.25 564.952C218.782 544.992 249.945 508.308 249.945 465.128H209.945C209.945 489.653 190.787 515.881 167.771 532.568L191.25 564.952ZM122.124 596.889C146.483 590.556 170.033 580.335 191.25 564.953L167.771 532.568C151.181 544.596 132.349 552.901 112.059 558.176L122.124 596.889ZM80.5435 600.137C95.099 603.51 109.252 600.236 122.124 596.889L112.059 558.176C98.6741 561.656 93.4278 562.063 89.5747 561.17L80.5435 600.137ZM43.6616 577.203C54.2863 587.269 65.6282 596.68 80.5434 600.137L89.5747 561.17C85.9387 560.327 81.3099 557.77 71.1714 548.165L43.6616 577.203ZM0 448.255C0 492.636 1.58809 537.344 43.6616 577.203L71.1714 548.165C42.3108 520.823 40 491.963 40 448.255H0ZM40.6601 348.15C2.2966 373.726 0 420.699 0 448.255H40C40 419.19 43.9627 394.023 62.8482 381.433L40.6601 348.15ZM105.027 326.704C84.2738 329.346 61.036 334.567 40.6601 348.151L62.8482 381.433C75.6325 372.91 91.6457 368.73 110.078 366.384L105.027 326.704ZM135.606 323.991C125.98 324.63 115.507 325.37 105.028 326.704L110.078 366.384C119.233 365.219 128.624 364.543 138.255 363.903L135.606 323.991ZM138.566 323.796L135.612 323.991L138.248 363.904L141.202 363.709L138.566 323.796ZM139.886 323.752H139.884V363.752H139.886V323.752ZM162.604 321.884C155.172 322.699 147.286 323.222 138.572 323.795L141.2 363.709C149.735 363.147 158.511 362.572 166.961 361.646L162.604 321.884ZM203.183 323.315C190.701 321.707 174.446 320.587 162.604 321.884L166.961 361.646C174.041 360.871 186.557 361.504 198.073 362.987L203.183 323.315ZM221.337 326.523C216.071 325.234 209.642 324.146 203.182 323.315L198.074 362.987C203.7 363.712 208.53 364.569 211.824 365.375L221.337 326.523ZM221.764 326.629L221.387 326.535L211.774 365.363L212.152 365.456L221.764 326.629ZM222.467 326.807C222.243 326.749 222.03 326.695 221.835 326.646L212.081 365.439C212.226 365.475 212.349 365.507 212.46 365.535L222.467 326.807ZM193.543 278.953C195.196 301.618 196.497 324.315 197.482 347.038L237.445 345.305C236.443 322.211 235.12 299.122 233.438 276.044L193.543 278.953ZM177.595 138.321C186.212 184.282 190.03 230.772 193.543 278.953L233.438 276.044C229.927 227.901 225.989 179.372 216.91 130.949L177.595 138.321ZM177.269 136.584L177.595 138.323L216.909 130.948L216.583 129.209L177.269 136.584ZM164.517 32.2702C164.517 68.8887 171.099 103.685 177.269 136.583L216.583 129.21C210.309 95.7552 204.517 64.5726 204.517 32.2702H164.517ZM176.189 11.1195C168.924 15.6975 164.517 23.6836 164.517 32.2702H204.517C204.517 37.4222 201.873 42.214 197.514 44.9609L176.189 11.1195ZM200.304 9.71737C192.557 6.01178 183.452 6.5422 176.188 11.1201L197.515 44.9603C193.157 47.7069 187.693 48.0254 183.044 45.8018L200.304 9.71737ZM272.026 24.2063C243.218 21.9354 221.929 20.0593 200.303 9.71687L183.045 45.8023C212.366 59.8253 240.999 61.8846 268.883 64.0826L272.026 24.2063ZM283.585 25.1413C279.637 24.8062 275.767 24.5012 272.026 24.2063L268.883 64.0826C272.642 64.379 276.393 64.6746 280.201 64.9979L283.585 25.1413ZM401.424 27.3262C362.327 29.0638 322.421 28.4388 283.585 25.1413L280.201 64.9979C320.875 68.4514 362.509 69.0952 403.2 67.2867L401.424 27.3262ZM512.291 11.2536C480.855 22.1879 438.176 25.6928 401.424 27.3262L403.2 67.2867C439.744 65.6626 487.834 62.1111 525.432 49.0336L512.291 11.2536ZM551.403 4.84541C540.492 5.42192 526.242 6.40102 512.291 11.2537L525.432 49.0335C533.517 46.2214 542.698 45.3611 553.513 44.7897L551.403 4.84541ZM545.486 6.072L545.473 6.077L559.443 43.5581L559.457 43.5531L545.486 6.072ZM543.601 6.92464C543.782 6.82396 544.073 6.67125 544.465 6.49325C544.663 6.40353 544.873 6.31332 545.095 6.22407C545.205 6.17979 545.308 6.13974 545.401 6.10413C545.447 6.08666 545.487 6.07167 545.519 6.05975C545.55 6.04843 545.573 6.03981 545.572 6.04013L559.37 43.585C560.329 43.2328 561.539 42.7172 563.02 41.8945L543.601 6.92464ZM544.162 6.56616C544.005 6.66645 543.895 6.73678 543.795 6.80069C543.698 6.86193 543.637 6.9001 543.596 6.92551C543.523 6.97029 543.54 6.95834 543.601 6.92462L563.02 41.8946C564.205 41.2366 565.202 40.5914 565.721 40.2591L544.162 6.56616ZM544.275 6.49408L544.262 6.50287L565.621 40.3224L565.635 40.3136L544.275 6.49408ZM545.728 5.57781C545.078 5.98011 544.547 6.31973 544.172 6.56005L565.739 40.2477C566.102 40.0153 566.401 39.8239 566.761 39.6017L545.728 5.57781ZM554.587 1.40141C550.364 2.72284 547.054 4.7584 545.731 5.57627L566.758 39.6033C566.943 39.4891 567.067 39.4149 567.163 39.3596C567.209 39.333 567.243 39.3138 567.267 39.3005C567.279 39.2939 567.288 39.2891 567.294 39.2858C567.298 39.2841 567.3 39.2829 567.301 39.2821C567.303 39.2813 567.304 39.2809 567.304 39.2809C567.304 39.2809 567.303 39.2814 567.301 39.2822C567.3 39.283 567.297 39.2843 567.294 39.2859C567.287 39.2892 567.277 39.2942 567.263 39.3007C567.236 39.3135 567.192 39.3336 567.132 39.3589C567.017 39.4078 566.814 39.4881 566.532 39.5765L554.587 1.40141ZM575.231 2.45953C566.881 -1.25162 559.177 -0.034785 554.587 1.40169L566.533 39.5762C565.465 39.9104 562.468 40.5601 558.985 39.0118L575.231 2.45953ZM588.705 14.5957C587.051 11.904 582.963 5.89585 575.23 2.45916L558.985 39.0121C557.243 38.2378 556.107 37.2482 555.499 36.6192C554.911 36.0118 554.638 35.5579 554.626 35.5377L588.705 14.5957ZM592.993 23.7805C592.066 21.1867 590.706 17.8517 588.705 14.5955L554.626 35.5379C554.576 35.4565 554.638 35.5471 554.786 35.876C554.931 36.196 555.111 36.6404 555.321 37.2301L592.993 23.7805ZM597.269 39.8879C596.245 34.9542 594.866 29.0285 592.993 23.781L555.321 37.2296C556.234 39.785 557.168 43.5063 558.102 48.0121L597.269 39.8879ZM599.467 51.4388C598.853 48.0502 598.11 43.9457 597.269 39.8878L558.102 48.0122C558.825 51.4939 559.48 55.1054 560.107 58.5674L599.467 51.4388ZM599.923 53.9499C599.778 53.1599 599.628 52.3278 599.467 51.4417L560.107 58.5645C560.266 59.4457 560.425 60.3232 560.58 61.1674L599.923 53.9499ZM600.911 59.2416C601.089 59.7524 601.141 60.0023 601.078 59.7503C601.032 59.5658 600.951 59.2221 600.834 58.6696C600.598 57.5569 600.301 56.0133 599.924 53.9547L560.579 61.1625C561.219 64.6577 562.079 69.3712 563.149 72.4343L600.911 59.2416ZM634.239 152.224C622.878 121.322 611.772 90.3265 600.911 59.2411L563.149 72.4348C574.08 103.72 585.259 134.918 596.696 166.027L634.239 152.224ZM681.091 330.851C672.33 270.057 655.915 211.182 634.239 152.224L596.696 166.027C617.656 223.038 633.228 279.155 641.5 336.556L681.091 330.851ZM681.16 331.356C681.129 331.105 681.09 330.831 681.043 330.536L641.548 336.871C641.517 336.68 641.493 336.509 641.475 336.363L681.16 331.356ZM687.784 453.365C689.281 411.439 686.845 370.845 681.114 331.011L641.522 336.708C646.931 374.302 649.217 412.51 647.809 451.938L687.784 453.365ZM643.779 537.221C661.892 519.107 686.482 489.818 687.784 453.365L647.809 451.938C647.096 471.906 632.836 491.595 615.494 508.937L643.779 537.221ZM594.938 559.527C610.647 557.369 629.051 551.949 643.779 537.221L615.494 508.937C609.419 515.012 600.835 518.341 589.495 519.899L594.938 559.527ZM559.322 561.032C569.377 561.117 582.312 561.261 594.938 559.527L589.495 519.899C580.227 521.172 570.211 521.123 559.659 521.034L559.322 561.032ZM559.485 561.033H559.49V521.033H559.485V561.033ZM552.703 560.994C554.792 560.994 556.973 561.013 559.317 561.032L559.653 521.034C557.344 521.014 554.99 520.994 552.703 520.994V560.994ZM552.088 560.994H552.703V520.994H552.088V560.994ZM484.206 545.775C508.483 561.382 532.183 560.995 552.089 560.994L552.088 520.994C531.321 520.995 519.032 520.611 505.837 512.128L484.206 545.775ZM430.678 477.567C439.939 502.704 460.452 530.505 484.207 545.775L505.837 512.128C490.279 502.127 474.851 481.758 468.212 463.739L430.678 477.567ZM436.066 392.58C419.409 421.842 420.415 449.709 430.679 477.567L468.212 463.738C461.115 444.476 461.194 429.294 470.829 412.368L436.066 392.58ZM437.675 389.744C437.118 390.727 436.583 391.671 436.066 392.581L470.829 412.367C471.37 411.417 471.923 410.441 472.483 409.452L437.675 389.744ZM437.751 389.61L437.71 389.682L472.447 409.515L472.488 409.443L437.751 389.61ZM453.809 363.325C447.405 372.541 441.9 382.286 437.718 389.669L472.522 409.384C476.826 401.786 481.466 393.622 486.657 386.151L453.809 363.325ZM483.345 333.521C470.593 341.263 460.856 353.184 453.809 363.325L486.657 386.151C492.699 377.456 498.578 371.068 504.104 367.713L483.345 333.521ZM572.836 309.443C543.225 311.203 511.077 316.684 483.345 333.521L504.104 367.713C523.643 355.85 548.126 350.982 575.209 349.373L572.836 309.443ZM631.1 309.118C612.985 308.719 592.73 308.261 572.836 309.443L575.209 349.373C593.204 348.304 611.827 348.703 630.219 349.108L631.1 309.118ZM631.218 309.121L631.16 309.12L630.16 349.107L630.218 349.109L631.218 309.121ZM631.281 309.122L631.167 309.12L630.27 349.11L630.384 349.112L631.281 309.122ZM650.747 309.472C644.54 309.414 638.065 309.272 631.272 309.122L630.393 349.113C637.135 349.261 643.867 349.409 650.369 349.47L650.747 309.472ZM587.31 169.478C607.41 224.148 622.448 277.817 630.787 332.487L670.329 326.455C661.495 268.54 645.645 212.227 624.853 155.675L587.31 169.478ZM553.709 75.7331C564.657 107.068 575.854 138.317 587.31 169.478L624.853 155.675C613.473 124.721 602.349 93.6748 591.471 62.5397L553.709 75.7331ZM550.743 62.9658C551.333 66.1877 552.326 71.7747 553.71 75.7353L591.47 62.5375C591.534 62.7215 591.507 62.6713 591.404 62.2713C591.31 61.9032 591.19 61.3936 591.046 60.7192C590.753 59.3446 590.443 57.697 590.087 55.756L550.743 62.9658ZM550.256 60.2911C550.418 61.1811 550.581 62.0855 550.742 62.9618L590.088 55.76C589.935 54.9236 589.779 54.0638 589.614 53.1507L550.256 60.2911ZM548.311 50.0432C549.005 53.3869 549.63 56.8332 550.255 60.2857L589.615 53.156C589.003 49.7807 588.29 45.8393 587.477 41.9188L548.311 50.0432ZM545.904 40.5918C546.575 42.4717 547.397 45.639 548.311 50.0431L587.477 41.9189C586.477 37.0955 585.209 31.7194 583.575 27.1434L545.904 40.5918ZM546.105 40.7725C545.932 40.4898 545.817 40.2775 545.757 40.1602C545.694 40.0394 545.665 39.9756 545.668 39.9807C545.669 39.9842 545.692 40.0361 545.735 40.1427C545.777 40.2486 545.834 40.3974 545.904 40.593L583.575 27.1422C582.767 24.8796 581.679 22.2619 580.186 19.8321L546.105 40.7725ZM546.117 40.7915L546.173 40.8816L580.119 19.723L580.062 19.6329L546.117 40.7915ZM572.027 48.0957C571.916 48.1547 571.699 48.2675 571.393 48.407L554.786 12.0174C554.201 12.2846 553.67 12.5531 553.206 12.8002L572.027 48.0957ZM572.015 48.1105C572.059 48.0833 572.092 48.0628 572.117 48.0483C572.141 48.0338 572.154 48.0263 572.156 48.0249C572.158 48.0235 572.148 48.0295 572.126 48.0417C572.104 48.0539 572.068 48.0739 572.019 48.1002L553.215 12.7956C552.426 13.216 551.676 13.6579 550.989 14.082L572.015 48.1105ZM571.434 48.4785C571.779 48.2584 571.934 48.1601 572.025 48.1041L550.979 14.0884C550.613 14.3148 550.209 14.5727 549.936 14.7469L571.434 48.4785ZM567.874 50.6374C569.309 49.8409 570.785 48.8918 571.415 48.4905L549.924 14.7547C549.527 15.0071 549.215 15.2056 548.92 15.3882C548.779 15.4752 548.667 15.5433 548.579 15.5952C548.489 15.6486 548.451 15.67 548.456 15.6671L567.874 50.6374ZM571.485 48.4462L571.5 48.4363L549.87 14.7891L549.854 14.799L571.485 48.4462Z" fill="black" mask="url(#path-1-outside-1_597_17)"/>
</svg>
