<svg width="441" height="372" viewBox="0 0 441 372" fill="none" xmlns="http://www.w3.org/2000/svg">
<path d="M81.6 47.6C84.1333 47.6 86.4 47.6667 88.4 47.8L93.8 187.8C91.5333 188.2 89.0667 188.467 86.4 188.6C83.8667 188.733 81.3333 188.8 78.8 188.8C76.4 188.8 74 188.8 71.6 188.8C69.3333 188.8 67.4 188.867 65.8 189H65.6C64.9333 184.6 64.4667 180.067 64.2 175.4C64.0667 170.6 63.9333 165.867 63.8 161.2C63.8 156.533 63.7333 151.867 63.6 147.2C63.4667 142.533 63.1333 138.067 62.6 133.8L62.4 133.6C58.5333 132.933 54.6667 132.6 50.8 132.6C46.9333 132.6 43.0667 133.067 39.2 134C38.8 138.667 38.6 143.267 38.6 147.8C38.7333 152.333 38.8667 156.867 39 161.4C39.1333 165.933 39.1333 170.4 39 174.8C39 179.067 38.6667 183.333 38 187.6C36.4 188.533 34.2667 189 31.6 189C28.9333 189 26.2667 188.867 23.6 188.6C20.9333 188.333 18.4 188.133 16 188C13.7333 187.867 12 188.133 10.8 188.8C10.5333 185.067 10.2 180 9.8 173.6C9.53333 167.067 9.26667 159.8 9 151.8C8.73333 143.667 8.46667 135.067 8.2 126C8.06667 116.933 7.93333 107.867 7.8 98.8C7.66667 89.6 7.6 80.8 7.6 72.4C7.73333 63.8667 7.86667 56.2 8 49.4V49.2H8.2H8.6C10.6 49.6 12.6667 49.7333 14.8 49.6C17.0667 49.4667 19.2667 49.3333 21.4 49.2C23.6667 49.0667 25.8667 49 28 49C30.1333 49 32.1333 49.2667 34 49.8C35.2 59 35.8 67.9333 35.8 76.6C35.8 85.2667 36.6 93.8667 38.2 102.4H38.4C41.7333 103.2 45.3333 103.467 49.2 103.2C53.0667 102.8 56.6667 102.467 60 102.2H60.2C61 93 61.4 84.4 61.4 76.4C61.5333 68.4 61.4 59.6 61 50C62.6 49.4667 64.5333 49 66.8 48.6C69.2 48.2 71.6667 47.9333 74.2 47.8C76.7333 47.5333 79.2 47.4667 81.6 47.6ZM166.005 161.6C174.538 162 183.338 162.067 192.405 161.8V162.2C192.671 166.467 192.738 170.933 192.605 175.6C192.471 180.133 191.871 184.4 190.805 188.4C177.205 188.267 163.338 188.467 149.205 189C135.205 189.4 121.738 189.067 108.805 188C108.805 176.4 108.671 164.933 108.405 153.6C108.138 142.133 107.938 130.733 107.805 119.4C107.671 108.067 107.671 96.7333 107.805 85.4C107.938 74.0667 108.338 62.6667 109.005 51.2C114.205 50.9333 119.805 50.7333 125.805 50.6C131.938 50.3333 138.071 50.1333 144.205 50C150.338 49.8667 156.271 49.7333 162.005 49.6C167.738 49.4667 172.805 49.4 177.205 49.4C181.605 49.4 185.138 49.4667 187.805 49.6C190.471 49.7333 191.805 49.8667 191.805 50C192.471 54.6667 192.605 59.4 192.205 64.2C191.938 69 191.805 73.7333 191.805 78.4V78.6C187.538 79.5333 183.205 80.1333 178.805 80.4C174.538 80.5333 170.205 80.6 165.805 80.6C161.405 80.4667 157.005 80.4 152.605 80.4C148.205 80.4 143.805 80.6 139.405 81H138.805L138.605 81.2C138.738 85.0667 138.538 89.0667 138.005 93.2C137.605 97.2 137.871 101 138.805 104.6L139.005 104.8C143.005 105.067 147.071 105.2 151.205 105.2C155.338 105.2 159.471 105.267 163.605 105.4V105.6C164.271 110.133 164.471 114.667 164.205 119.2C163.938 123.733 163.871 128.467 164.005 133.4C162.005 133.933 159.738 134.267 157.205 134.4C154.671 134.4 152.205 134.4 149.805 134.4C147.538 134.4 145.471 134.467 143.605 134.6C141.738 134.733 140.471 135.067 139.805 135.6C139.138 139.467 138.871 143.8 139.005 148.6C139.271 153.4 139.538 157.4 139.805 160.6L140.005 160.8C148.805 160.8 157.471 161.067 166.005 161.6ZM266.294 109.6C267.227 113.467 267.96 116.533 268.494 118.8L283.494 188.8V189C279.494 189.8 275.094 190.067 270.294 189.8C265.494 189.667 260.96 189.133 256.694 188.2H256.494C255.694 186.067 254.894 183.533 254.094 180.6C253.427 177.667 252.694 174.667 251.894 171.6C251.227 168.533 250.494 165.6 249.694 162.8C248.894 160 248.027 157.6 247.094 155.6C245.36 155.333 244.027 155.2 243.094 155.2C242.16 155.2 241.294 155.2 240.494 155.2C239.827 155.2 239.027 155.267 238.094 155.4C237.294 155.4 236.16 155.4 234.694 155.4C233.76 157.533 232.96 160.067 232.294 163C231.76 165.8 231.16 168.8 230.494 172C229.96 175.067 229.36 178.067 228.694 181C228.027 183.933 227.094 186.533 225.894 188.8C225.76 188.8 225.627 188.867 225.494 189C225.494 189 225.427 189 225.294 189C224.227 189.267 221.56 189.267 217.294 189C213.027 188.733 206.36 188.667 197.294 188.8C197.16 188.8 197.027 188.733 196.894 188.6C197.16 187.667 197.627 185.067 198.294 180.8C198.96 176.533 199.894 171 201.094 164.2C202.294 157.4 203.694 149.6 205.294 140.8C207.027 131.867 209.027 122.4 211.294 112.4C213.56 102.4 216.027 92 218.694 81.2C221.36 70.4 224.294 59.6667 227.494 49C228.427 48.8667 229.427 48.8 230.494 48.8C231.56 48.8 232.96 48.8 234.694 48.8C236.427 48.8 238.627 48.8 241.294 48.8C244.094 48.6667 247.694 48.4 252.094 48C252.494 49.7333 253.094 52.4 253.894 56C254.827 59.4667 255.76 63.4667 256.694 68C257.76 72.4 258.827 77.1333 259.894 82.2C261.094 87.2667 262.227 92.1333 263.294 96.8C264.36 101.467 265.36 105.733 266.294 109.6ZM240.494 132C243.027 131.867 245.56 131.8 248.094 131.8C246.76 120.333 245.56 111.4 244.494 105C243.56 98.6 242.694 94.2667 241.894 92C241.227 89.7333 240.494 89.2667 239.694 90.6C239.027 91.8 238.36 94.3333 237.694 98.2C237.16 102.067 236.494 106.933 235.694 112.8C235.027 118.667 234.227 125 233.294 131.8C235.56 131.933 237.96 132 240.494 132ZM351.813 55.2C355.813 58.2667 359.013 61.7333 361.413 65.6C364.346 70.1333 366.746 74.8667 368.613 79.8C370.613 84.6 372.213 89.6667 373.413 95C374.079 97.1333 374.479 99.2667 374.613 101.4C374.879 103.4 375.079 105.467 375.213 107.6C374.946 113.867 374.679 120.2 374.413 126.6C374.279 132.867 373.613 139.067 372.413 145.2C372.413 145.333 372.346 145.4 372.213 145.4C372.213 145.4 372.213 145.467 372.213 145.6C369.546 153.467 365.879 160.933 361.213 168C356.679 175.067 351.879 181.733 346.813 188C338.013 188.267 329.146 188.467 320.213 188.6C311.279 188.6 302.613 188.6 294.213 188.6C294.213 188.6 294.146 188.667 294.013 188.8C292.546 178.267 291.613 167.4 291.213 156.2C290.813 144.867 290.613 133.4 290.613 121.8C290.613 110.2 290.679 98.5333 290.813 86.8C291.079 74.9333 291.079 63.2 290.813 51.6C290.946 51.4667 291.013 51.3333 291.013 51.2C291.146 51.0667 291.279 50.9333 291.413 50.8C295.146 49.8667 299.013 49.2667 303.013 49C307.146 48.6 311.279 48.4667 315.413 48.6C319.546 48.6 323.613 48.6667 327.613 48.8C331.746 48.9333 335.746 48.9333 339.613 48.8C343.879 49.8667 347.946 52 351.813 55.2ZM340.213 141.8C341.279 140.6 342.213 139.4 343.013 138.2C345.279 134.733 346.879 130.933 347.813 126.8C348.879 122.667 348.879 118.133 347.813 113.2C347.413 111.2 346.946 109.133 346.413 107C345.879 104.733 345.079 102.6 344.013 100.6C343.079 98.6 341.879 96.8667 340.413 95.4C338.946 93.8 337.079 92.6 334.813 91.8C332.546 91.5333 330.079 91.4 327.413 91.4C324.746 91.2667 322.213 91.4667 319.813 92H319.413H319.213V92.8C319.479 96.4 319.613 100.267 319.613 104.4C319.613 108.533 319.546 112.867 319.413 117.4C319.279 121.8 319.213 126.333 319.213 131C319.213 135.533 319.346 140.067 319.613 144.6C321.079 145.933 323.079 146.533 325.613 146.4C328.279 146.267 330.813 146.067 333.213 145.8C333.879 145.933 334.479 145.867 335.013 145.6C335.546 145.2 336.146 144.867 336.813 144.6C338.146 143.8 339.279 142.867 340.213 141.8Z" fill="#fff"/>
<path d="M71.2 271.4C71.2 271.667 71 271.8 70.6 271.8C66.4667 272.467 62.1333 273 57.6 273.4C53.2 273.667 49 274.133 45 274.8H44.8C44.1333 283.2 43.7333 291.6 43.6 300C43.4667 308.267 43.3333 316.2 43.2 323.8C40.5333 324.067 37.3333 324.267 33.6 324.4C30 324.533 26.4 324.6 22.8 324.6C19.2 324.6 16 324.533 13.2 324.4C10.5333 324.267 8.93333 324.067 8.4 323.8L8.2 323.6C8.2 315.6 8.2 308.133 8.2 301.2C8.2 294.133 8.2 287.333 8.2 280.8C8.33333 274.267 8.4 267.733 8.4 261.2C8.4 254.533 8.4 247.533 8.4 240.2C8.53333 232.867 8.6 225 8.6 216.6C8.6 208.067 8.6 198.6 8.6 188.2V188C10.8667 187.6 14.1333 187.2 18.4 186.8C22.6667 186.4 27.4667 186 32.8 185.6C38.2667 185.2 44 184.933 50 184.8C56.1333 184.533 62.1333 184.467 68 184.6C73.8667 184.6 79.4 184.867 84.6 185.4C89.8 185.933 94.2667 186.667 98 187.6C98 189.333 98 191.533 98 194.2C98.1333 196.867 98.2 199.667 98.2 202.6C98.2 205.4 98.2 208.133 98.2 210.8C98.2 213.333 98.1333 215.467 98 217.2C94.4 217.467 90.3333 217.733 85.8 218C81.4 218.267 76.8 218.533 72 218.8C67.3333 218.933 62.6 219.133 57.8 219.4C53.1333 219.667 48.7333 220 44.6 220.4C43.1333 223.867 42.5333 227.2 42.8 230.4C43.0667 233.6 43.8 236.267 45 238.4C45.1333 238.533 45.2667 238.6 45.4 238.6C47.2667 238.867 49.3333 239.067 51.6 239.2C54 239.2 56.3333 239.2 58.6 239.2C60.8667 239.2 63.0667 239.133 65.2 239C67.3333 238.867 69.1333 238.733 70.6 238.6C71 239.533 71.2 241.333 71.2 244C71.3333 246.667 71.3333 249.667 71.2 253C71.0667 256.2 70.9333 259.467 70.8 262.8C70.8 266.133 70.9333 269 71.2 271.4ZM124.628 183.4C127.828 183.533 132.428 183.533 138.428 183.4H143.228V184.2C143.228 195.667 143.028 207.2 142.628 218.8C142.361 230.4 142.095 242.067 141.828 253.8C141.695 265.4 141.695 277 141.828 288.6C141.961 300.2 142.361 311.667 143.028 323C141.961 324.067 139.695 324.667 136.228 324.8C132.895 325.067 129.228 325.133 125.228 325C121.361 324.867 117.628 324.667 114.028 324.4C110.428 324.267 107.961 324.4 106.628 324.8C107.561 312.8 107.961 300.733 107.828 288.6C107.695 276.467 107.428 264.467 107.028 252.6C106.761 240.6 106.561 228.8 106.428 217.2C106.428 205.467 107.028 194 108.228 182.8V182.4C108.895 182.267 110.161 182.333 112.028 182.6C114.028 182.733 115.495 182.8 116.428 182.8C118.828 182.933 121.561 183.133 124.628 183.4ZM246.581 307.6C249.515 312.667 251.981 317.933 253.981 323.4H254.181C249.515 323.4 244.315 323.6 238.581 324C232.848 324.267 226.981 324.2 220.981 323.8H220.781C219.448 320.733 217.781 317.067 215.781 312.8C213.781 308.533 211.581 304.067 209.181 299.4C206.781 294.733 204.181 290.133 201.381 285.6C198.581 281.067 195.781 277.067 192.981 273.6L192.581 273C192.181 276.067 191.981 279.867 191.981 284.4C191.981 288.8 192.048 293.4 192.181 298.2C192.448 302.867 192.715 307.333 192.981 311.6C193.248 315.867 193.448 319.267 193.581 321.8C191.315 322.733 188.315 323.333 184.581 323.6C180.981 323.867 177.381 324 173.781 324C170.181 324.133 166.915 324.133 163.981 324C161.181 323.867 159.448 323.867 158.781 324C159.048 324 159.248 322.2 159.381 318.6C159.515 314.867 159.581 310 159.581 304C159.581 298 159.581 291.133 159.581 283.4C159.581 275.533 159.515 267.467 159.381 259.2C159.381 250.8 159.248 242.533 158.981 234.4C158.848 226.133 158.715 218.6 158.581 211.8C158.448 204.867 158.248 199 157.981 194.2C157.848 189.267 157.648 185.933 157.381 184.2C164.848 183.133 173.048 182.133 181.981 181.2C190.915 180.267 200.248 180.333 209.981 181.4C217.848 181.8 224.915 184.067 231.181 188.2C237.448 192.333 242.315 197.467 245.781 203.6C249.248 209.733 251.048 216.533 251.181 224C251.448 231.333 249.515 238.467 245.381 245.4C242.848 250.2 239.448 254.2 235.181 257.4C231.048 260.6 225.781 262.4 219.381 262.8H218.581H218.381V263C221.181 267.933 224.248 272.867 227.581 277.8C230.915 282.6 234.181 287.467 237.381 292.4C240.581 297.333 243.648 302.4 246.581 307.6ZM200.381 209.2C195.848 209.333 191.248 210.333 186.581 212.2C186.715 213.933 186.781 215.933 186.781 218.2C186.915 220.333 186.981 222.533 186.981 224.8C186.981 227.067 186.981 229.267 186.981 231.4C187.115 233.533 187.315 235.333 187.581 236.8H187.781C190.848 237.067 194.181 237.267 197.781 237.4C201.381 237.533 204.781 237.333 207.981 236.8C210.515 236.267 212.448 235 213.781 233C215.248 230.867 216.115 228.6 216.381 226.2C216.648 223.667 216.381 221.2 215.581 218.8C214.781 216.267 213.448 214.267 211.581 212.8C208.648 210.133 204.915 208.933 200.381 209.2ZM344.497 204.4C347.964 210.933 348.764 219.2 346.897 229.2H346.697C342.03 230 337.03 230.533 331.697 230.8C326.364 230.933 321.364 230.333 316.697 229C317.497 225.4 316.764 222.4 314.497 220C312.23 217.6 309.497 216.067 306.297 215.4C303.097 214.733 299.964 215.067 296.897 216.4C293.964 217.733 292.23 220.267 291.697 224C291.43 224.933 291.297 225.867 291.297 226.8C291.43 227.6 291.564 228.467 291.697 229.4C292.764 232.6 294.497 234.733 296.897 235.8C299.297 236.867 301.897 237.6 304.697 238C311.764 238.8 318.297 241.067 324.297 244.8C330.43 248.533 335.43 253.267 339.297 259C341.697 262.067 343.497 265.4 344.697 269C345.897 272.467 346.564 276.067 346.697 279.8C346.964 283.533 346.697 287.333 345.897 291.2C345.23 294.933 344.097 298.533 342.497 302C340.897 306.133 338.764 309.667 336.097 312.6C333.43 315.533 330.364 317.933 326.897 319.8C323.564 321.667 319.897 323.067 315.897 324C312.03 324.8 308.03 325.133 303.897 325C298.03 324.867 292.164 323.867 286.297 322C280.564 320 275.43 317.267 270.897 313.8C266.364 310.333 262.764 306.133 260.097 301.2C257.43 296.133 256.297 290.4 256.697 284V283.4V282.8C261.364 282.133 266.497 282 272.097 282.4C277.697 282.667 282.764 282.733 287.297 282.6C287.564 286.867 289.23 290.067 292.297 292.2C295.497 294.333 298.83 295.4 302.297 295.4C305.897 295.267 308.964 294.067 311.497 291.8C314.164 289.533 315.097 286.067 314.297 281.4C313.897 278.2 312.697 275.667 310.697 273.8C308.697 271.8 306.297 270.2 303.497 269C300.83 267.8 297.897 266.933 294.697 266.4C291.497 265.733 288.497 265.133 285.697 264.6C283.03 264.067 280.564 263.2 278.297 262C276.03 260.8 273.964 259.4 272.097 257.8C265.964 251.933 261.964 245.467 260.097 238.4C258.364 231.333 258.297 224.467 259.897 217.8C261.497 211.133 264.497 205.067 268.897 199.6C273.43 194.133 278.897 190.067 285.297 187.4C288.497 186.067 292.03 185.2 295.897 184.8C299.764 184.267 303.63 184.133 307.497 184.4C311.497 184.533 315.364 185.067 319.097 186C322.964 186.933 326.497 188.133 329.697 189.6C336.097 192.933 341.03 197.867 344.497 204.4ZM395.367 183C409.901 182.867 424.034 183.533 437.767 185C438.034 189.4 438.101 194.467 437.967 200.2C437.967 205.933 437.634 211.2 436.967 216C434.434 215.467 431.301 215.267 427.567 215.4C423.834 215.533 418.834 215.733 412.567 216H412.167H411.967C411.967 216.133 411.901 216.267 411.767 216.4C411.767 216.4 411.767 216.467 411.767 216.6C411.634 217.267 411.501 218.333 411.367 219.8C411.367 221.133 411.367 223.333 411.367 226.4C411.367 229.333 411.367 233.267 411.367 238.2C411.501 243 411.634 249.267 411.767 257C411.901 264.6 412.034 273.8 412.167 284.6C412.301 295.267 412.501 307.867 412.767 322.4V322.6V322.8C410.367 323.2 407.701 323.467 404.767 323.6C401.967 323.6 399.101 323.6 396.167 323.6C393.367 323.6 390.567 323.6 387.767 323.6C384.967 323.6 382.367 323.8 379.967 324.2C379.834 323.667 379.834 321.267 379.967 317C380.101 312.733 380.167 306.4 380.167 298C380.301 289.467 380.234 278.6 379.967 265.4C379.834 252.2 379.367 236.267 378.567 217.6L378.367 217.4C376.767 216.6 374.767 216.133 372.367 216C369.967 215.733 367.567 215.6 365.167 215.6C362.767 215.467 360.567 215.4 358.567 215.4C356.567 215.4 355.167 215.267 354.367 215C354.101 214.467 353.834 213.133 353.567 211C353.434 208.867 353.301 206.333 353.167 203.4C353.167 200.333 353.167 197.067 353.167 193.6C353.167 190.133 353.301 186.8 353.567 183.6C353.567 183.467 353.501 183.4 353.367 183.4C353.367 183.4 353.367 183.333 353.367 183.2C366.967 183.067 380.967 183 395.367 183Z" fill="#fff"/>
</svg>
